# xmcd CD database file
#
# Track frame offsets:
#	150
#	11417
#	23507
#	36077
#	50272
#	59212
#	71652
#	88247
#	100967
#	115770
#	126710
#
# Disc length: 1936 seconds
#
# Revision: 3
# Processed by: cddbd v1.5.2PL0 Copyright (c) Steve Scherf et al.
# Submitted via: CDex 1.51
#
DISCID=98078e0b
DTITLE=The Fabulous Thunderbirds - Butt Rockin'
DYEAR=1900
DGENRE=Blues Rock
TTITLE0=I Believe I'm In Love
TTITLE1=One's Too Many
TTITLE2=Give Me All Your Lovin'
TTITLE3=Roll, Roll, Roll
TTITLE4=Cherry Pink And Apple Blossom White
TTITLE5=I Hear You Knockin'
TTITLE6=Timp On In
TTITLE7=I'm Sorry
TTITLE8=Mathilda
TTITLE9=Tell Me Why
TTITLE10=In Orbit
EXTD=
EXTT0=
EXTT1=
EXTT2=
EXTT3=
EXTT4=
EXTT5=
EXTT6=
EXTT7=
EXTT8=
EXTT9=
EXTT10=
PLAYORDER=
